<svg id="visual" viewBox="0 0 1920 400" width="1920" height="400" xmlns="http://www.w3.org/2000/svg" xmlns:xlink="http://www.w3.org/1999/xlink" version="1.1"><rect x="0" y="0" width="1920" height="400" fill="#d4d4d8"></rect><path d="M0 141L24.7 153.5C49.3 166 98.7 191 147.8 195.7C197 200.3 246 184.7 295.2 168.8C344.3 153 393.7 137 443 130.7C492.3 124.3 541.7 127.7 590.8 140.7C640 153.7 689 176.3 738.2 174.5C787.3 172.7 836.7 146.3 886 133.2C935.3 120 984.7 120 1034 136.8C1083.3 153.7 1132.7 187.3 1181.8 191C1231 194.7 1280 168.3 1329.2 168C1378.3 167.7 1427.7 193.3 1477 198.7C1526.3 204 1575.7 189 1624.8 171.8C1674 154.7 1723 135.3 1772.2 138.8C1821.3 142.3 1870.7 168.7 1895.3 181.8L1920 195L1920 401L1895.3 401C1870.7 401 1821.3 401 1772.2 401C1723 401 1674 401 1624.8 401C1575.7 401 1526.3 401 1477 401C1427.7 401 1378.3 401 1329.2 401C1280 401 1231 401 1181.8 401C1132.7 401 1083.3 401 1034 401C984.7 401 935.3 401 886 401C836.7 401 787.3 401 738.2 401C689 401 640 401 590.8 401C541.7 401 492.3 401 443 401C393.7 401 344.3 401 295.2 401C246 401 197 401 147.8 401C98.7 401 49.3 401 24.7 401L0 401Z" fill="#d0ff9a"></path><path d="M0 221L24.7 220.8C49.3 220.7 98.7 220.3 147.8 214.7C197 209 246 198 295.2 194.3C344.3 190.7 393.7 194.3 443 205.3C492.3 216.3 541.7 234.7 590.8 244.2C640 253.7 689 254.3 738.2 244.3C787.3 234.3 836.7 213.7 886 218.5C935.3 223.3 984.7 253.7 1034 258.8C1083.3 264 1132.7 244 1181.8 229.2C1231 214.3 1280 204.7 1329.2 208.5C1378.3 212.3 1427.7 229.7 1477 240.3C1526.3 251 1575.7 255 1624.8 256.7C1674 258.3 1723 257.7 1772.2 255C1821.3 252.3 1870.7 247.7 1895.3 245.3L1920 243L1920 401L1895.3 401C1870.7 401 1821.3 401 1772.2 401C1723 401 1674 401 1624.8 401C1575.7 401 1526.3 401 1477 401C1427.7 401 1378.3 401 1329.2 401C1280 401 1231 401 1181.8 401C1132.7 401 1083.3 401 1034 401C984.7 401 935.3 401 886 401C836.7 401 787.3 401 738.2 401C689 401 640 401 590.8 401C541.7 401 492.3 401 443 401C393.7 401 344.3 401 295.2 401C246 401 197 401 147.8 401C98.7 401 49.3 401 24.7 401L0 401Z" fill="#b9ff66"></path><path d="M0 264L24.7 270.3C49.3 276.7 98.7 289.3 147.8 289.7C197 290 246 278 295.2 277.7C344.3 277.3 393.7 288.7 443 288C492.3 287.3 541.7 274.7 590.8 272.8C640 271 689 280 738.2 290.7C787.3 301.3 836.7 313.7 886 316.8C935.3 320 984.7 314 1034 314.5C1083.3 315 1132.7 322 1181.8 322.5C1231 323 1280 317 1329.2 307.7C1378.3 298.3 1427.7 285.7 1477 280.3C1526.3 275 1575.7 277 1624.8 285.5C1674 294 1723 309 1772.2 318C1821.3 327 1870.7 330 1895.3 331.5L1920 333L1920 401L1895.3 401C1870.7 401 1821.3 401 1772.2 401C1723 401 1674 401 1624.8 401C1575.7 401 1526.3 401 1477 401C1427.7 401 1378.3 401 1329.2 401C1280 401 1231 401 1181.8 401C1132.7 401 1083.3 401 1034 401C984.7 401 935.3 401 886 401C836.7 401 787.3 401 738.2 401C689 401 640 401 590.8 401C541.7 401 492.3 401 443 401C393.7 401 344.3 401 295.2 401C246 401 197 401 147.8 401C98.7 401 49.3 401 24.7 401L0 401Z" fill="#88c444"></path></svg>